<?xml version="1.0" encoding="UTF-8"?>
<svg id="Calque_2" data-name="Calque 2" xmlns="http://www.w3.org/2000/svg" viewBox="0 0 313.93 67.56">
  <defs>
    <style>
      .cls-1 {
        fill: #01104f;
      }

      .cls-1, .cls-2, .cls-3 {
        stroke-width: 0px;
      }

      .cls-2 {
        fill: #f9bf00;
      }

      .cls-3 {
        fill: #e80c0c;
      }
    </style>
  </defs>
  <g id="Calque_1-2" data-name="Calque 1">
    <g>
      <path class="cls-1" d="M33.77,0C15.13,0,0,15.11,0,33.77s15.13,33.79,33.77,33.79,33.79-15.13,33.79-33.79S52.44,0,33.77,0ZM43.49,56.9h-26.36l1.49-2.78h18.47l-13.96-8.41,1.33-2.46,13.91,8.4-9.36-16.91,1.57-2.92,8.6,15.56-4.34-23.51,2.11-3.93,3.75,20.37V12.92l2.78-5.2v49.18Z"/>
      <g>
        <polygon class="cls-3" points="197.65 39.32 220.26 39.32 220.26 29.3 197.65 29.3 197.65 18.07 223.2 18.07 223.2 8.05 187.27 8.05 187.27 60.72 224.2 60.72 224.2 50.7 197.65 50.7 197.65 39.32"/>
        <path class="cls-1" d="M251.32,5.97l-23.76,54.75h10.23l4.29-10.3h17.48l4.06,10.3h12.02l-23.76-54.75h-.57ZM245.72,41.68l5.35-12.84,5.06,12.84h-10.41Z"/>
        <path class="cls-1" d="M306.85,33.35c-1.91-1.17-3.89-2.14-5.94-2.9-1.67-.62-3.28-1.31-4.83-2.08-1.55-.76-2.82-1.63-3.79-2.61-.98-.98-1.47-2.09-1.47-3.33,0-1.81.64-3.17,1.93-4.08,1.29-.9,3.05-1.36,5.3-1.36,1.81,0,3.76.36,5.83,1.07,2.07.71,4.11,1.62,6.12,2.72l3.93-7.95c-2.1-1.38-4.47-2.58-7.12-3.58-2.65-1-6.09-1.5-10.34-1.5-3.24.14-6.11.87-8.59,2.18-2.48,1.31-4.4,3.09-5.76,5.33-1.36,2.24-2.04,4.89-2.04,7.94,0,2.53.46,4.66,1.4,6.41.93,1.74,2.15,3.19,3.65,4.36,1.5,1.17,3.11,2.16,4.83,2.97,1.72.81,3.39,1.53,5.01,2.15,1.38.53,2.66,1.14,3.83,1.86,1.17.72,2.1,1.5,2.79,2.36.69.86,1.04,1.82,1.04,2.86,0,1.53-.42,2.72-1.25,3.58-.84.86-1.89,1.47-3.15,1.82-1.27.36-2.52.54-3.76.54-1.86,0-3.96-.43-6.3-1.29-2.34-.86-4.41-1.96-6.23-3.29l-4.58,8.09c2.77,1.96,5.71,3.39,8.84,4.29,3.12.91,6.19,1.36,9.19,1.36,3.91,0,7.21-.7,9.88-2.11,2.67-1.41,4.7-3.26,6.08-5.54,1.38-2.29,2.08-4.77,2.08-7.44,0-3.34-.62-6.02-1.86-8.05-1.24-2.03-2.82-3.63-4.72-4.8Z"/>
        <path class="cls-1" d="M96.9,50.7h17.48l4.06,10.3h12.02L106.71,6.26h-.57l-23.76,54.75h10.23l4.29-10.3ZM100.54,41.97l5.35-12.84,5.06,12.84h-10.41Z"/>
        <path class="cls-2" d="M144.42,58.29c4.2,2.19,9.13,3.29,14.81,3.29,1.62,0,3.34-.18,5.15-.54,1.81-.36,3.59-.82,5.33-1.4,1.74-.57,3.28-1.21,4.62-1.9,1.33-.69,2.31-1.37,2.93-2.04v-22.25h-19.61v10.02h9.09v6.37c-.86.48-1.91.82-3.15,1.04s-2.6.32-4.08.32c-3.39,0-6.4-.64-9.05-1.93-2.65-1.29-4.71-3.12-6.19-5.51-1.48-2.38-2.22-5.22-2.22-8.52,0-3.77.68-6.92,2.04-9.45,1.36-2.53,3.36-4.43,6.01-5.69,2.65-1.27,5.86-1.9,9.63-1.9,1.14,0,2.46.16,3.94.47,1.48.31,2.93.7,4.36,1.18,1.43.48,2.58.95,3.43,1.43l3.36-9.66c-1.96-1.1-4.34-2.01-7.16-2.75-2.81-.74-5.91-1.11-9.3-1.11-3.58,0-7,.57-10.27,1.72-3.27,1.15-6.15,2.9-8.66,5.26-2.5,2.36-4.48,5.32-5.94,8.87-1.46,3.56-2.18,7.74-2.18,12.56s1.13,9.28,3.4,13.1c2.27,3.82,5.5,6.82,9.7,9.02Z"/>
      </g>
    </g>
  </g>
</svg>