<?xml version="1.0" encoding="UTF-8"?>
<svg id="Calque_2" data-name="Calque 2" xmlns="http://www.w3.org/2000/svg" viewBox="0 0 54.24 25.56">
  <defs>
    <style>
      .cls-1 {
        fill: #d2dc65;
      }
    </style>
  </defs>
  <g id="Calque_1-2" data-name="Calque 1">
    <g>
      <path class="cls-1" d="m0,.53h3.46c1.38,0,2.54.42,3.48,1.27.94.85,1.41,2.03,1.41,3.56v.64c0,1.52-.47,2.71-1.41,3.56s-2.1,1.27-3.48,1.27H0V.53Zm3.43,8.69c.8,0,1.45-.27,1.95-.8.5-.53.75-1.32.75-2.36v-.74c0-1.04-.25-1.83-.75-2.36s-1.15-.8-1.95-.8h-1.27v7.06h1.27Z"/>
      <path class="cls-1" d="m9.89.5c.21-.22.52-.33.92-.33s.7.11.91.33c.21.22.32.49.32.81s-.11.59-.32.81c-.21.22-.52.33-.92.33s-.7-.11-.91-.33c-.21-.22-.32-.49-.32-.81s.11-.59.32-.81Zm-.15,2.87h2.12v7.47h-2.12V3.37Z"/>
      <path class="cls-1" d="m14.44,11.6c.17.17.45.34.84.51.39.17.82.25,1.3.25.51,0,.93-.16,1.25-.48.32-.32.48-.81.48-1.46v-.34c-.18.29-.45.51-.8.67s-.76.24-1.23.24c-.96,0-1.73-.34-2.32-1.03-.59-.68-.89-1.6-.89-2.73v-.23c0-1.14.29-2.05.88-2.73.59-.68,1.36-1.03,2.33-1.03.46,0,.88.09,1.25.28.37.19.64.43.79.72h.04l.04-.86h2v6.98c0,1.15-.35,2.04-1.06,2.66-.71.62-1.59.93-2.67.93-.66,0-1.26-.1-1.81-.3-.55-.2-1-.45-1.36-.74l.91-1.3Zm1.19-2.78c.27.38.68.57,1.23.57.36,0,.66-.1.92-.32.25-.21.43-.45.54-.71v-2.47c-.12-.32-.3-.57-.56-.78-.25-.2-.57-.3-.93-.3-.53,0-.93.19-1.19.58-.27.38-.4.88-.4,1.5v.43c0,.61.13,1.11.4,1.49Z"/>
      <path class="cls-1" d="m22.18.5c.21-.22.52-.33.92-.33s.7.11.91.33c.21.22.32.49.32.81s-.11.59-.32.81c-.21.22-.52.33-.92.33s-.7-.11-.91-.33c-.21-.22-.32-.49-.32-.81s.11-.59.32-.81Zm-.15,2.87h2.12v7.47h-2.12V3.37Z"/>
      <path class="cls-1" d="m24.84,3.37h4.59v1.54h-4.59v-1.54Zm1.11.8v-.21s0-2.35,0-2.35h2.09v6.96c0,.34.06.57.19.7.13.13.3.19.52.19.11,0,.22-.01.33-.04s.21-.06.32-.1v1.51c-.11.06-.26.11-.46.15s-.42.06-.65.06c-.7,0-1.27-.2-1.7-.59s-.64-1.01-.64-1.84v-4.45Z"/>
      <path class="cls-1" d="m30.99,6.76c.64-.42,1.45-.63,2.42-.63h1.44v-.42c0-.33-.09-.6-.26-.81-.17-.21-.48-.31-.91-.31s-.75.08-.93.25-.27.38-.27.63v.11h-2.07v-.11c0-.67.31-1.23.94-1.67.63-.44,1.43-.65,2.43-.65s1.78.21,2.34.63.85,1.06.85,1.94v3.45c0,.3.03.59.08.86.06.27.13.51.22.69v.11h-2.07c-.06-.11-.11-.25-.15-.43s-.07-.35-.09-.51c-.14.28-.42.53-.83.75-.41.22-.92.33-1.53.33-.73,0-1.34-.19-1.83-.58-.5-.39-.74-.97-.74-1.76,0-.84.32-1.46.97-1.88Zm1.43,2.49c.19.2.49.3.91.3.44,0,.81-.14,1.1-.42.29-.28.44-.62.44-1.01v-.71h-1.15c-.53,0-.93.09-1.19.27-.26.18-.39.44-.39.77s.09.59.28.79Z"/>
      <path class="cls-1" d="m38.62,0h2.11v10.84h-2.11V0Z"/>
      <path class="cls-1" d="m46,6.21c.5-.51,1.11-.97,1.83-1.38l1.42-.81c.33-.2.55-.4.66-.58.11-.18.16-.4.16-.66,0-.31-.08-.54-.23-.7s-.38-.24-.68-.24-.53.09-.69.28c-.16.19-.24.43-.24.74,0,.29.08.56.23.82.16.26.42.63.81,1.12l4.98,6.05h-2.39l-4.13-5.01c-.57-.66-.98-1.2-1.24-1.63-.26-.43-.39-.88-.39-1.35,0-.76.29-1.38.86-1.84.57-.46,1.31-.69,2.2-.69s1.61.22,2.14.66c.53.44.8,1.02.8,1.74,0,.59-.14,1.07-.42,1.46-.28.39-.7.74-1.25,1.05l-1.41.79c-.56.33-.97.65-1.23.95s-.39.66-.39,1.07.13.76.39,1.01c.26.25.62.38,1.08.38.7,0,1.33-.3,1.89-.9.55-.6.84-1.43.85-2.51h2.04c0,1.39-.47,2.56-1.4,3.52-.93.96-2.08,1.44-3.43,1.44-1.14,0-2.02-.27-2.64-.8-.62-.53-.93-1.21-.93-2.03s.25-1.43.76-1.94Z"/>
      <path class="cls-1" d="m20.23,15.03h2.15l1.52,6.94c.03.16.06.29.07.39.01.1.03.23.05.39h.06c.01-.16.03-.29.04-.39.01-.1.04-.23.07-.39l1.68-6.94h2.41l1.7,6.92c.04.17.06.3.07.4s.03.23.05.39h.06c.02-.16.04-.29.05-.39s.04-.23.07-.4l1.47-6.92h1.9l-2.38,10.34h-2.41l-1.75-6.94c-.04-.17-.07-.31-.1-.45-.02-.13-.04-.28-.06-.44h-.06c-.01.16-.03.31-.05.44-.02.13-.05.28-.1.45l-1.74,6.94h-2.36l-2.43-10.34Z"/>
      <path class="cls-1" d="m33.93,21.49c0-1.16.35-2.09,1.04-2.79s1.58-1.05,2.67-1.05,1.94.33,2.56.99.93,1.57.93,2.72v.76h-5.76v-1.31h3.68v-.16c0-.41-.12-.76-.37-1.04-.25-.29-.59-.43-1.05-.43-.52,0-.92.2-1.2.59-.27.39-.41.93-.41,1.61v.45c0,.66.15,1.19.44,1.58.29.39.73.59,1.31.59.4,0,.74-.1,1.03-.3s.53-.42.71-.68l1.48.97c-.24.45-.64.83-1.2,1.13s-1.23.45-1.99.45c-1.21,0-2.16-.35-2.85-1.05-.69-.7-1.03-1.63-1.03-2.79v-.23Z"/>
      <path class="cls-1" d="m42.22,14.5h2.1v4.13c.24-.29.53-.52.88-.68.35-.16.76-.24,1.22-.24.96,0,1.73.35,2.29,1.04.56.7.85,1.6.85,2.72v.23c0,1.12-.28,2.03-.85,2.73-.57.7-1.33,1.04-2.29,1.04-.46,0-.89-.09-1.29-.28s-.67-.42-.83-.7h-.04l-.04.84h-2v-10.84Zm2.65,9.06c.26.22.59.33.99.33.52,0,.91-.19,1.17-.57s.38-.88.38-1.49v-.43c0-.61-.13-1.11-.38-1.49s-.64-.57-1.18-.57c-.39,0-.72.11-.98.33-.26.22-.44.46-.55.74v2.42c.11.28.29.53.55.75Z"/>
      <path class="cls-1" d="m51.05,23.36c.23-.24.56-.36.99-.36s.76.12.99.36c.23.24.34.54.34.88s-.11.65-.34.89-.56.36-.99.36-.76-.12-.99-.37-.34-.54-.34-.89.11-.64.34-.88Z"/>
    </g>
  </g>
</svg>