<?xml version="1.0" encoding="UTF-8"?>
<svg id="Calque_2" data-name="Calque 2" xmlns="http://www.w3.org/2000/svg" viewBox="0 0 83.76 28.43">
  <defs>
    <style>
      .cls-1 {
        fill: #e11e84;
      }
    </style>
  </defs>
  <g id="Calque_1-2" data-name="Calque 1">
    <g>
      <path class="cls-1" d="m0,5.37c0-1.65.43-2.91,1.28-3.76.85-.85,1.98-1.28,3.38-1.28,1.27,0,2.27.31,3.01.93s1.11,1.4,1.12,2.34v.1h-2.19v-.08c0-.44-.17-.83-.51-1.15-.34-.32-.85-.48-1.52-.48-.71,0-1.28.26-1.7.79s-.64,1.31-.64,2.36v1.1c0,1.08.23,1.87.69,2.38.46.51,1.09.77,1.89.77.4,0,.74-.04,1.02-.12.28-.08.56-.22.83-.41v-1.83h-1.99v-1.61h4.13v4.18c-.36.36-.87.7-1.54,1s-1.49.46-2.45.46c-1.49,0-2.66-.43-3.52-1.28-.85-.85-1.28-2.11-1.28-3.76v-.64Z"/>
      <path class="cls-1" d="m10.14,3.37h2l.05.81h.04c.15-.28.35-.52.62-.72.26-.2.56-.3.89-.3.09,0,.19.01.29.04.1.02.17.04.22.06v1.82c-.08-.02-.17-.03-.27-.05-.09-.01-.19-.02-.31-.02-.32,0-.61.1-.86.29s-.44.43-.56.73v4.81h-2.11V3.37Z"/>
      <path class="cls-1" d="m15.48,6.76c.64-.42,1.45-.63,2.42-.63h1.44v-.42c0-.33-.09-.6-.26-.81-.17-.21-.48-.31-.91-.31s-.75.08-.93.25-.27.38-.27.63v.11h-2.07v-.11c0-.67.31-1.23.94-1.67.63-.44,1.43-.65,2.43-.65s1.78.21,2.34.63.85,1.06.85,1.94v3.45c0,.3.03.59.08.86.06.27.13.51.22.69v.11h-2.07c-.06-.11-.11-.25-.15-.43s-.07-.35-.09-.51c-.14.28-.42.53-.83.75-.41.22-.92.33-1.53.33-.73,0-1.34-.19-1.83-.58-.5-.39-.74-.97-.74-1.76,0-.84.32-1.46.97-1.88Zm1.43,2.49c.19.2.49.3.91.3.44,0,.81-.14,1.1-.42.29-.28.44-.62.44-1.01v-.71h-1.15c-.53,0-.93.09-1.19.27-.26.18-.39.44-.39.77s.09.59.28.79Z"/>
      <path class="cls-1" d="m23.08,3.37h1.97l.05.84h.04c.16-.29.42-.53.81-.71.38-.19.81-.28,1.27-.28.96,0,1.73.34,2.32,1.02.59.68.89,1.6.89,2.74v.23c0,1.14-.29,2.06-.87,2.74-.58.68-1.34,1.03-2.28,1.03-.46,0-.88-.08-1.26-.23-.38-.16-.66-.37-.84-.65v3.69h-2.1V3.37Zm2.68,5.71c.28.21.6.31.97.31.52,0,.91-.18,1.16-.54.25-.36.38-.86.38-1.52v-.46c0-.65-.13-1.16-.38-1.52s-.65-.54-1.17-.54c-.38,0-.7.1-.96.3-.26.2-.45.44-.57.7v2.53c.11.28.3.52.58.73Z"/>
      <path class="cls-1" d="m31.62,0h2.1v4.35c.22-.33.52-.6.88-.81s.82-.32,1.37-.32c.7,0,1.28.22,1.73.67s.68,1.17.68,2.18v4.77h-2.1v-4.65c0-.49-.11-.83-.33-1.04-.22-.21-.51-.31-.87-.31-.33,0-.61.09-.84.27-.23.18-.4.44-.53.78v4.95h-2.1V0Z"/>
      <path class="cls-1" d="m40.11.5c.21-.22.52-.33.92-.33s.7.11.91.33c.21.22.32.49.32.81s-.11.59-.32.81c-.21.22-.52.33-.92.33s-.7-.11-.91-.33c-.21-.22-.32-.49-.32-.81s.11-.59.32-.81Zm-.15,2.87h2.12v7.47h-2.12V3.37Z"/>
      <path class="cls-1" d="m45.3,8.49v.11c0,.35.12.6.35.76.24.16.56.24.96.24s.72-.08.93-.23c.21-.15.31-.36.31-.61s-.11-.45-.33-.57c-.22-.12-.74-.27-1.56-.44-.87-.18-1.51-.46-1.91-.83-.4-.38-.6-.86-.6-1.45,0-.71.29-1.28.86-1.69.57-.42,1.34-.62,2.32-.62s1.74.22,2.32.65.87,1.02.87,1.76v.08h-2.06v-.12c0-.28-.09-.51-.28-.67s-.47-.24-.86-.24-.67.07-.84.2c-.17.13-.26.31-.26.52s.11.39.33.52.75.28,1.58.45c.86.18,1.5.45,1.91.81.41.36.61.87.61,1.51,0,.76-.28,1.36-.85,1.79s-1.39.65-2.48.65-1.91-.22-2.5-.65-.89-1.05-.89-1.84v-.08h2.07Z"/>
      <path class="cls-1" d="m51.13,3.37h2l.04.85h.04c.22-.32.52-.57.89-.74.37-.17.77-.26,1.19-.26.52,0,.97.11,1.36.33s.67.54.85.97h.03c.25-.42.59-.75,1.03-.97s.9-.33,1.38-.33c.75,0,1.36.24,1.82.71.46.47.69,1.26.69,2.36v4.55h-2.11v-4.68c0-.45-.09-.78-.28-.99-.18-.21-.46-.32-.82-.32-.32,0-.59.08-.83.26s-.43.42-.56.73v5.01h-2.11v-4.66c0-.46-.09-.8-.28-1.01-.19-.22-.47-.33-.84-.33-.32,0-.59.08-.82.25-.23.17-.42.42-.55.74v5.01h-2.1V3.37Z"/>
      <path class="cls-1" d="m63.57,6.99c0-1.16.35-2.09,1.04-2.79s1.58-1.05,2.67-1.05,1.94.33,2.56.99.93,1.57.93,2.72v.76h-5.76v-1.31h3.68v-.16c0-.41-.12-.76-.37-1.04-.25-.29-.59-.43-1.05-.43-.52,0-.92.2-1.2.59-.27.39-.41.93-.41,1.61v.45c0,.66.15,1.19.44,1.58.29.39.73.59,1.31.59.4,0,.74-.1,1.03-.3s.53-.42.71-.68l1.48.97c-.24.45-.64.83-1.2,1.13s-1.23.45-1.99.45c-1.21,0-2.16-.35-2.85-1.05-.69-.7-1.03-1.63-1.03-2.79v-.23Z"/>
      <path class="cls-1" d="m75.52,6.21c.5-.51,1.11-.97,1.83-1.38l1.42-.81c.33-.2.55-.4.66-.58.11-.18.16-.4.16-.66,0-.31-.08-.54-.23-.7s-.38-.24-.68-.24-.53.09-.69.28c-.16.19-.24.43-.24.74,0,.29.08.56.23.82.16.26.42.63.81,1.12l4.98,6.05h-2.39l-4.13-5.01c-.57-.66-.98-1.2-1.24-1.63-.26-.43-.39-.88-.39-1.35,0-.76.29-1.38.86-1.84.57-.46,1.31-.69,2.2-.69s1.61.22,2.14.66c.53.44.8,1.02.8,1.74,0,.59-.14,1.07-.42,1.46-.28.39-.7.74-1.25,1.05l-1.41.79c-.56.33-.97.65-1.23.95s-.39.66-.39,1.07.13.76.39,1.01c.26.25.62.38,1.08.38.7,0,1.33-.3,1.89-.9.55-.6.84-1.43.85-2.51h2.04c0,1.39-.47,2.56-1.4,3.52-.93.96-2.08,1.44-3.43,1.44-1.14,0-2.02-.27-2.64-.8-.62-.53-.93-1.21-.93-2.03s.25-1.43.76-1.94Z"/>
      <path class="cls-1" d="m34.54,15.03h3.46c1.38,0,2.54.42,3.48,1.27.94.85,1.41,2.03,1.41,3.56v.64c0,1.52-.47,2.71-1.41,3.56s-2.1,1.27-3.48,1.27h-3.46v-10.31Zm3.43,8.69c.8,0,1.45-.27,1.95-.8.5-.53.75-1.32.75-2.36v-.74c0-1.04-.25-1.83-.75-2.36s-1.15-.8-1.95-.8h-1.27v7.06h1.27Z"/>
      <path class="cls-1" d="m43.86,21.49c0-1.16.35-2.09,1.04-2.79s1.58-1.05,2.67-1.05,1.94.33,2.56.99.93,1.57.93,2.72v.76h-5.76v-1.31h3.68v-.16c0-.41-.12-.76-.37-1.04-.25-.29-.59-.43-1.05-.43-.52,0-.92.2-1.2.59-.27.39-.41.93-.41,1.61v.45c0,.66.15,1.19.44,1.58.29.39.73.59,1.31.59.4,0,.74-.1,1.03-.3s.53-.42.71-.68l1.48.97c-.24.45-.64.83-1.2,1.13s-1.23.45-1.99.45c-1.21,0-2.16-.35-2.85-1.05-.69-.7-1.03-1.63-1.03-2.79v-.23Z"/>
      <path class="cls-1" d="m53.75,22.99v.11c0,.35.12.6.35.76.24.16.56.24.96.24s.72-.08.93-.23c.21-.15.31-.36.31-.61s-.11-.45-.33-.57c-.22-.12-.74-.27-1.56-.44-.87-.18-1.51-.46-1.91-.83-.4-.38-.6-.86-.6-1.45,0-.71.29-1.28.86-1.69.57-.42,1.34-.62,2.32-.62s1.74.22,2.32.65.87,1.02.87,1.76v.08h-2.06v-.12c0-.28-.09-.51-.28-.67s-.47-.24-.86-.24-.67.07-.84.2c-.17.13-.26.31-.26.52s.11.39.33.52.75.28,1.58.45c.86.18,1.5.45,1.91.81.41.36.61.87.61,1.51,0,.76-.28,1.36-.85,1.79s-1.39.65-2.48.65-1.91-.22-2.5-.65-.89-1.05-.89-1.84v-.08h2.07Z"/>
      <path class="cls-1" d="m59.75,15c.21-.22.52-.33.92-.33s.7.11.91.33c.21.22.32.49.32.81s-.11.59-.32.81c-.21.22-.52.33-.92.33s-.7-.11-.91-.33c-.21-.22-.32-.49-.32-.81s.11-.59.32-.81Zm-.15,2.87h2.12v7.47h-2.12v-7.47Z"/>
      <path class="cls-1" d="m64.3,26.1c.17.17.45.34.84.51.39.17.82.25,1.3.25.51,0,.93-.16,1.25-.48.32-.32.48-.81.48-1.46v-.34c-.18.29-.45.51-.8.67s-.76.24-1.23.24c-.96,0-1.73-.34-2.32-1.03-.59-.68-.89-1.6-.89-2.73v-.23c0-1.14.29-2.05.88-2.73.59-.68,1.36-1.03,2.33-1.03.46,0,.88.09,1.25.28.37.19.64.43.79.72h.04l.04-.86h2v6.98c0,1.15-.35,2.04-1.06,2.66-.71.62-1.59.93-2.67.93-.66,0-1.26-.1-1.81-.3-.55-.2-1-.45-1.36-.74l.91-1.3Zm1.19-2.78c.27.38.68.57,1.23.57.36,0,.66-.1.92-.32.25-.21.43-.45.54-.71v-2.47c-.12-.32-.3-.57-.56-.78-.25-.2-.57-.3-.93-.3-.53,0-.93.19-1.19.58-.27.38-.4.88-.4,1.5v.43c0,.61.13,1.11.4,1.49Z"/>
      <path class="cls-1" d="m71.87,17.87h2l.05.84h.04c.19-.29.48-.53.86-.71.38-.19.8-.28,1.26-.28.77,0,1.4.22,1.88.65.48.44.73,1.2.73,2.3v4.67h-2.1v-4.74c0-.47-.1-.79-.3-.98-.2-.19-.48-.28-.85-.28-.3,0-.58.09-.85.26-.26.17-.46.41-.6.73v5.01h-2.1v-7.47Z"/>
      <path class="cls-1" d="m80.57,23.36c.23-.24.56-.36.99-.36s.76.12.99.36c.23.24.34.54.34.88s-.11.65-.34.89-.56.36-.99.36-.76-.12-.99-.37-.34-.54-.34-.89.11-.64.34-.88Z"/>
    </g>
  </g>
</svg>