<?xml version="1.0" encoding="UTF-8"?>
<svg id="Calque_2" data-name="Calque 2" xmlns="http://www.w3.org/2000/svg" viewBox="0 0 55.81 24.68">
  <defs>
    <style>
      .cls-1 {
        fill: #3b73b9;
      }
    </style>
  </defs>
  <g id="Calque_1-2" data-name="Calque 1">
    <g>
      <path class="cls-1" d="m0,.51h3.79c1.16,0,2.05.28,2.67.83.62.56.94,1.35.94,2.39s-.31,1.83-.93,2.39c-.62.57-1.51.85-2.68.85h-1.7v3.49H0V.51Zm3.6,4.89c.64,0,1.09-.15,1.33-.44.25-.3.37-.71.37-1.23s-.12-.92-.37-1.21c-.25-.29-.69-.43-1.33-.43h-1.5v3.32h1.5Z"/>
      <path class="cls-1" d="m8.38,0h2.03v4.2c.21-.32.5-.58.85-.79s.79-.31,1.32-.31c.67,0,1.23.22,1.67.65.44.43.66,1.13.66,2.1v4.61h-2.03v-4.49c0-.47-.1-.8-.31-1s-.49-.3-.84-.3c-.32,0-.59.09-.81.26-.22.18-.39.43-.51.75v4.78h-2.03V0Z"/>
      <path class="cls-1" d="m16.03,6.75c0-1.13.34-2.04,1.03-2.7.69-.67,1.58-1,2.68-1s2,.33,2.68,1c.69.67,1.03,1.57,1.03,2.7v.22c0,1.13-.34,2.04-1.03,2.7-.69.67-1.58,1-2.68,1s-1.99-.33-2.68-1c-.69-.67-1.03-1.57-1.03-2.7v-.22Zm2.08.33c0,.67.14,1.18.43,1.52.29.35.69.52,1.21.52s.92-.17,1.2-.52c.28-.35.42-.85.42-1.52v-.45c0-.67-.14-1.18-.43-1.52-.29-.35-.69-.52-1.2-.52s-.91.17-1.2.52c-.29.35-.43.85-.43,1.52v.45Z"/>
      <path class="cls-1" d="m23.72,3.25h4.44v1.48h-4.44v-1.48Zm1.07.77v-.2s0-2.27,0-2.27h2.02v6.72c0,.32.06.55.18.67.12.13.29.19.51.19.1,0,.21-.01.31-.04s.21-.06.31-.1v1.46c-.1.05-.25.1-.45.14-.19.04-.4.06-.63.06-.68,0-1.22-.19-1.64-.57-.41-.38-.62-.97-.62-1.78v-4.29Z"/>
      <path class="cls-1" d="m28.57,6.75c0-1.13.34-2.04,1.03-2.7.69-.67,1.58-1,2.68-1s2,.33,2.68,1c.69.67,1.03,1.57,1.03,2.7v.22c0,1.13-.34,2.04-1.03,2.7-.69.67-1.58,1-2.68,1s-1.99-.33-2.68-1c-.69-.67-1.03-1.57-1.03-2.7v-.22Zm2.08.33c0,.67.14,1.18.43,1.52.29.35.69.52,1.21.52s.92-.17,1.2-.52c.28-.35.42-.85.42-1.52v-.45c0-.67-.14-1.18-.43-1.52-.29-.35-.69-.52-1.2-.52s-.91.17-1.2.52c-.29.35-.43.85-.43,1.52v.45Z"/>
      <path class="cls-1" d="m38.68,8.2v.11c0,.34.11.58.34.74.23.16.54.23.93.23s.7-.07.9-.22c.2-.15.3-.35.3-.59s-.11-.44-.32-.55c-.21-.12-.71-.26-1.51-.42-.84-.17-1.46-.44-1.85-.8s-.58-.83-.58-1.4c0-.69.28-1.23.83-1.63.55-.4,1.3-.6,2.24-.6s1.68.21,2.24.63.84.98.84,1.7v.08h-1.99v-.12c0-.27-.09-.49-.27-.65-.18-.16-.46-.24-.83-.24s-.64.06-.81.19c-.17.13-.25.3-.25.51s.11.38.32.5.72.27,1.52.43c.83.17,1.45.44,1.84.79.39.35.59.84.59,1.46,0,.73-.27,1.31-.82,1.73s-1.34.63-2.39.63-1.84-.21-2.42-.63c-.57-.42-.86-1.01-.86-1.78v-.08h2Z"/>
      <path class="cls-1" d="m47.85,5.99c.49-.49,1.08-.94,1.76-1.34l1.37-.78c.32-.2.53-.38.63-.56.1-.18.15-.39.15-.64,0-.3-.07-.52-.22-.68s-.36-.24-.66-.24-.51.09-.67.27c-.16.18-.23.42-.23.71,0,.28.08.54.23.79.15.25.41.61.78,1.08l4.81,5.84h-2.31l-3.99-4.83c-.55-.64-.94-1.16-1.19-1.58-.25-.41-.37-.85-.37-1.3,0-.74.28-1.33.83-1.78.55-.45,1.26-.67,2.12-.67s1.55.21,2.07.64c.51.42.77.98.77,1.68,0,.57-.14,1.03-.41,1.41-.27.37-.67.71-1.2,1.02l-1.36.77c-.54.32-.94.63-1.19.92-.25.29-.37.64-.37,1.04s.12.73.38.97c.25.24.6.36,1.05.36.68,0,1.29-.29,1.82-.86.54-.58.81-1.38.82-2.42h1.97c0,1.34-.45,2.47-1.35,3.4-.9.93-2.01,1.39-3.32,1.39-1.1,0-1.95-.26-2.55-.77-.6-.51-.9-1.17-.9-1.96s.24-1.38.73-1.88Z"/>
      <path class="cls-1" d="m9.71,14.51l2.43,6.76c.05.13.08.24.11.35.03.11.05.23.09.37h.05c.03-.14.06-.27.09-.37.03-.11.07-.22.11-.35l2.48-6.76h2l-3.71,9.98h-2.22l-3.72-9.98h2.28Z"/>
      <path class="cls-1" d="m17.69,14.48c.21-.21.5-.31.89-.31s.68.1.88.31c.21.21.31.47.31.78s-.1.57-.31.78c-.21.21-.5.31-.88.31s-.68-.1-.88-.31c-.21-.21-.31-.47-.31-.78s.1-.57.31-.78Zm-.14,2.78h2.04v7.21h-2.04v-7.21Z"/>
      <path class="cls-1" d="m20.76,20.75c0-1.08.29-1.95.87-2.62.58-.67,1.34-1.01,2.27-1.01.45,0,.83.08,1.17.24.33.16.58.37.76.63v-3.99h2.02v10.47h-1.93l-.04-.83h-.03c-.15.28-.4.51-.75.69-.35.18-.75.27-1.19.27-.98,0-1.75-.34-2.31-1.01-.56-.67-.84-1.55-.84-2.62v-.22Zm2.46,1.76c.26.37.64.55,1.15.55.36,0,.66-.09.9-.28.24-.19.43-.42.54-.69v-2.47c-.11-.27-.29-.5-.52-.69-.24-.19-.54-.28-.91-.28-.51,0-.89.19-1.15.56-.26.37-.39.85-.39,1.45v.42c0,.59.13,1.07.39,1.44Z"/>
      <path class="cls-1" d="m29,20.75c0-1.12.34-2.01,1.01-2.69.67-.68,1.53-1.02,2.57-1.02s1.87.32,2.47.95c.6.64.9,1.51.9,2.63v.73h-5.56v-1.26h3.55v-.16c0-.4-.12-.73-.36-1.01-.24-.28-.57-.41-1.01-.41-.51,0-.89.19-1.16.57-.26.38-.4.9-.4,1.56v.44c0,.64.14,1.15.43,1.52.29.38.71.57,1.26.57.38,0,.72-.1,1-.29s.51-.41.68-.66l1.43.94c-.23.44-.61.8-1.16,1.09s-1.18.43-1.92.43c-1.17,0-2.08-.34-2.75-1.02-.67-.68-1-1.58-1-2.69v-.22Zm3.84-7.64l1.53.95-2.18,2.07-1.1-.81,1.75-2.21Z"/>
      <path class="cls-1" d="m36.62,20.75c0-1.13.34-2.04,1.03-2.7.69-.67,1.58-1,2.68-1s2,.33,2.68,1c.69.67,1.03,1.57,1.03,2.7v.22c0,1.13-.34,2.04-1.03,2.7-.69.67-1.58,1-2.68,1s-1.99-.33-2.68-1c-.69-.67-1.03-1.57-1.03-2.7v-.22Zm2.08.33c0,.67.14,1.18.43,1.52.29.35.69.52,1.21.52s.92-.17,1.2-.52c.28-.35.42-.85.42-1.52v-.45c0-.67-.14-1.18-.43-1.52-.29-.35-.69-.52-1.2-.52s-.91.17-1.2.52c-.29.35-.43.85-.43,1.52v.45Z"/>
      <path class="cls-1" d="m46.74,22.2v.11c0,.34.11.58.34.74.23.16.54.23.93.23s.7-.07.9-.22c.2-.15.3-.35.3-.59s-.11-.44-.32-.55c-.21-.12-.71-.26-1.51-.42-.84-.17-1.46-.44-1.85-.8s-.58-.83-.58-1.4c0-.69.28-1.23.83-1.63.55-.4,1.3-.6,2.24-.6s1.68.21,2.24.63.84.98.84,1.7v.08h-1.99v-.12c0-.27-.09-.49-.27-.65-.18-.16-.46-.24-.83-.24s-.64.06-.81.19c-.17.13-.25.3-.25.51s.11.38.32.5.72.27,1.52.43c.83.17,1.45.44,1.84.79.39.35.59.84.59,1.46,0,.73-.27,1.31-.82,1.73s-1.34.63-2.39.63-1.84-.21-2.42-.63c-.57-.42-.86-1.01-.86-1.78v-.08h2Z"/>
      <path class="cls-1" d="m52.73,22.56c.22-.23.54-.35.95-.35s.73.12.95.35c.22.23.33.52.33.85s-.11.62-.33.86c-.22.23-.54.35-.95.35s-.73-.12-.95-.36c-.22-.24-.33-.52-.33-.85s.11-.62.33-.85Z"/>
    </g>
  </g>
</svg>