<?xml version="1.0" encoding="UTF-8"?>
<svg id="Calque_2" data-name="Calque 2" xmlns="http://www.w3.org/2000/svg" viewBox="0 0 70.03 29.86">
  <defs>
    <style>
      .cls-1 {
        fill: #e8e7e6;
      }
    </style>
  </defs>
  <g id="Calque_1-2" data-name="Calque 1">
    <g>
      <path class="cls-1" d="m11.61,8.65h2.22v.16c0,.51.16.88.49,1.14.33.25.78.38,1.37.38s1.03-.12,1.34-.35c.31-.24.47-.55.47-.94s-.15-.72-.44-.94c-.3-.22-.95-.46-1.95-.72-1.08-.28-1.9-.66-2.47-1.14s-.85-1.14-.86-1.99c0-.91.35-1.64,1.04-2.18.7-.54,1.63-.81,2.81-.81s2.11.28,2.82.84c.71.56,1.06,1.31,1.06,2.24v.18h-2.18v-.15c0-.44-.14-.79-.42-1.06s-.71-.4-1.27-.4-.97.11-1.24.32c-.26.21-.4.5-.4.86s.14.62.42.8c.28.18.93.41,1.93.68,1.06.28,1.89.67,2.47,1.17.59.5.88,1.21.89,2.15,0,.98-.37,1.74-1.1,2.28-.73.54-1.71.81-2.91.81s-2.18-.27-2.94-.8c-.76-.53-1.14-1.31-1.14-2.34v-.18Z"/>
      <path class="cls-1" d="m19.91,4.3h4.59v1.54h-4.59v-1.54Zm1.11.8v-.21s0-2.35,0-2.35h2.09v6.96c0,.34.06.57.19.7.13.13.3.19.52.19.11,0,.22-.01.33-.04.11-.03.21-.06.32-.1v1.51c-.11.06-.26.11-.46.15-.2.04-.42.06-.65.06-.7,0-1.27-.2-1.7-.59-.43-.39-.64-1.01-.64-1.84v-4.45Z"/>
      <path class="cls-1" d="m25.47,4.3h2l.05.81h.04c.15-.28.35-.52.62-.72.26-.2.56-.3.89-.3.09,0,.19.01.29.04.1.02.17.04.22.06v1.82c-.08-.02-.17-.03-.27-.05-.09-.01-.19-.02-.31-.02-.32,0-.61.1-.86.29s-.44.43-.56.73v4.81h-2.11v-7.47Z"/>
      <path class="cls-1" d="m30.81,7.69c.64-.42,1.45-.63,2.42-.63h1.44v-.42c0-.33-.09-.6-.26-.81-.17-.21-.48-.31-.91-.31s-.75.08-.93.25c-.18.17-.27.38-.27.63v.11h-2.07v-.11c0-.67.31-1.23.94-1.67.63-.44,1.43-.65,2.42-.65s1.78.21,2.34.63c.56.42.85,1.06.85,1.94v3.45c0,.3.03.59.08.86.06.27.13.51.22.69v.11h-2.07c-.06-.11-.11-.25-.15-.43-.04-.18-.07-.35-.09-.51-.14.28-.42.53-.83.75s-.92.33-1.53.33c-.73,0-1.34-.19-1.83-.58-.5-.39-.74-.97-.74-1.76,0-.84.32-1.46.97-1.88Zm1.43,2.49c.19.2.49.3.91.3.44,0,.81-.14,1.1-.42.29-.28.44-.62.44-1.01v-.71h-1.15c-.53,0-.93.09-1.19.27-.26.18-.39.44-.39.77s.09.59.28.79Z"/>
      <path class="cls-1" d="m37.5,4.3h4.59v1.54h-4.59v-1.54Zm1.11.8v-.21s0-2.35,0-2.35h2.09v6.96c0,.34.06.57.19.7.13.13.3.19.52.19.11,0,.22-.01.33-.04.11-.03.21-.06.32-.1v1.51c-.11.06-.26.11-.46.15-.2.04-.42.06-.65.06-.7,0-1.27-.2-1.7-.59-.43-.39-.64-1.01-.64-1.84v-4.45Z"/>
      <path class="cls-1" d="m42.65,7.92c0-1.16.35-2.09,1.04-2.79.7-.7,1.58-1.05,2.67-1.05s1.94.33,2.56.99c.62.66.93,1.57.93,2.72v.76h-5.76v-1.31h3.68v-.16c0-.41-.12-.76-.37-1.04-.25-.29-.59-.43-1.05-.43-.52,0-.92.2-1.2.59-.27.39-.41.93-.41,1.61v.45c0,.66.15,1.19.44,1.58.29.39.73.59,1.31.59.4,0,.74-.1,1.03-.3.29-.2.53-.42.71-.68l1.48.97c-.24.45-.63.83-1.2,1.13-.56.3-1.22.45-1.99.45-1.21,0-2.16-.35-2.85-1.05-.69-.7-1.03-1.63-1.03-2.79v-.23Zm3.98-7.92l1.59.98-2.26,2.15-1.14-.84,1.81-2.29Z"/>
      <path class="cls-1" d="m51.91,12.52c.17.17.45.34.84.51.39.17.82.25,1.3.25.51,0,.93-.16,1.25-.48.32-.32.48-.81.48-1.46v-.34c-.18.29-.45.51-.8.67-.35.16-.76.24-1.23.24-.96,0-1.73-.34-2.32-1.03-.59-.68-.89-1.6-.89-2.73v-.23c0-1.14.29-2.05.88-2.73.59-.68,1.36-1.03,2.33-1.03.46,0,.88.09,1.25.28.37.19.64.43.79.72h.04l.04-.86h2v6.98c0,1.15-.35,2.04-1.06,2.66-.71.62-1.59.93-2.67.93-.66,0-1.26-.1-1.81-.3-.55-.2-1-.45-1.36-.74l.91-1.3Zm1.19-2.78c.27.38.68.57,1.23.57.36,0,.66-.1.92-.32.25-.21.43-.45.54-.71v-2.47c-.12-.32-.3-.57-.56-.78-.25-.2-.57-.3-.93-.3-.53,0-.93.19-1.19.58-.27.38-.4.88-.4,1.5v.43c0,.61.13,1.11.4,1.49Z"/>
      <path class="cls-1" d="m59.64,1.42c.21-.22.52-.33.92-.33s.7.11.91.33c.21.22.32.49.32.81s-.11.59-.32.81c-.21.22-.52.33-.92.33s-.7-.11-.91-.33c-.21-.22-.32-.49-.32-.81s.11-.59.32-.81Zm-.15,2.87h2.12v7.47h-2.12v-7.47Z"/>
      <path class="cls-1" d="m62.83,7.92c0-1.16.35-2.09,1.04-2.79.7-.7,1.58-1.05,2.67-1.05s1.94.33,2.56.99c.62.66.93,1.57.93,2.72v.76h-5.76v-1.31h3.68v-.16c0-.41-.12-.76-.37-1.04-.25-.29-.59-.43-1.05-.43-.52,0-.92.2-1.2.59-.27.39-.41.93-.41,1.61v.45c0,.66.15,1.19.44,1.58.29.39.73.59,1.31.59.4,0,.74-.1,1.03-.3.29-.2.53-.42.71-.68l1.48.97c-.24.45-.63.83-1.2,1.13-.56.3-1.22.45-1.99.45-1.21,0-2.16-.35-2.85-1.05-.69-.7-1.03-1.63-1.03-2.79v-.23Z"/>
      <path class="cls-1" d="m0,16.46h2.78l2.46,6.68c.06.16.11.31.15.45.04.14.07.3.1.47h.05c.03-.17.06-.33.11-.47s.09-.29.15-.45l2.47-6.68h2.82v10.31h-2.15v-6.58c0-.16,0-.34.01-.53s.02-.36.03-.52h-.06c-.02.16-.06.33-.1.52-.04.19-.1.37-.15.53l-2.43,6.58h-1.78l-2.41-6.58c-.06-.16-.11-.34-.16-.53-.05-.19-.08-.36-.11-.52h-.06c.01.16.02.33.03.52s.01.37.01.53v6.58H0v-10.31Z"/>
      <path class="cls-1" d="m13.46,22.69c.64-.42,1.45-.63,2.42-.63h1.44v-.42c0-.33-.09-.6-.26-.81-.17-.21-.48-.31-.91-.31s-.75.08-.93.25c-.18.17-.27.38-.27.63v.11h-2.07v-.11c0-.67.31-1.23.94-1.67.63-.44,1.43-.65,2.42-.65s1.78.21,2.34.63c.56.42.85,1.06.85,1.94v3.45c0,.3.03.59.08.86.06.27.13.51.22.69v.11h-2.07c-.06-.11-.11-.25-.15-.43-.04-.18-.07-.35-.09-.51-.14.28-.42.53-.83.75s-.92.33-1.53.33c-.73,0-1.34-.19-1.83-.58-.5-.39-.74-.97-.74-1.76,0-.84.32-1.46.97-1.88Zm1.43,2.49c.19.2.49.3.91.3.44,0,.81-.14,1.1-.42.29-.28.44-.62.44-1.01v-.71h-1.15c-.53,0-.93.09-1.19.27-.26.18-.39.44-.39.77s.09.59.28.79Z"/>
      <path class="cls-1" d="m21.07,19.3h2l.05.81h.04c.15-.28.35-.52.62-.72.26-.2.56-.3.89-.3.09,0,.19.01.29.04.1.02.17.04.22.06v1.82c-.08-.02-.17-.03-.27-.05-.09-.01-.19-.02-.31-.02-.32,0-.61.1-.86.29s-.44.43-.56.73v4.81h-2.11v-7.47Z"/>
      <path class="cls-1" d="m26.08,15.93h2.1v6.03l2.46-2.67h2.32l-4.78,5.12v2.36h-2.1v-10.84Zm2.14,7.36l1.34-1.49,3.71,4.98h-2.49l-2.56-3.48Z"/>
      <path class="cls-1" d="m33.19,22.92c0-1.16.35-2.09,1.04-2.79.7-.7,1.58-1.05,2.67-1.05s1.94.33,2.56.99c.62.66.93,1.57.93,2.72v.76h-5.76v-1.31h3.68v-.16c0-.41-.12-.76-.37-1.04-.25-.29-.59-.43-1.05-.43-.52,0-.92.2-1.2.59-.27.39-.41.93-.41,1.61v.45c0,.66.15,1.19.44,1.58.29.39.73.59,1.31.59.4,0,.74-.1,1.03-.3.29-.2.53-.42.71-.68l1.48.97c-.24.45-.63.83-1.2,1.13-.56.3-1.22.45-1.99.45-1.21,0-2.16-.35-2.85-1.05-.69-.7-1.03-1.63-1.03-2.79v-.23Z"/>
      <path class="cls-1" d="m40.56,19.3h4.59v1.54h-4.59v-1.54Zm1.11.8v-.21s0-2.35,0-2.35h2.09v6.96c0,.34.06.57.19.7.13.13.3.19.52.19.11,0,.22-.01.33-.04.11-.03.21-.06.32-.1v1.51c-.11.06-.26.11-.46.15-.2.04-.42.06-.65.06-.7,0-1.27-.2-1.7-.59-.43-.39-.64-1.01-.64-1.84v-4.45Z"/>
      <path class="cls-1" d="m46.29,16.42c.21-.22.52-.33.92-.33s.7.11.91.33c.21.22.32.49.32.81s-.11.59-.32.81c-.21.22-.52.33-.92.33s-.7-.11-.91-.33c-.21-.22-.32-.49-.32-.81s.11-.59.32-.81Zm-.15,2.87h2.12v7.47h-2.12v-7.47Z"/>
      <path class="cls-1" d="m49.87,19.3h2l.05.84h.04c.19-.29.48-.53.86-.71.38-.19.8-.28,1.26-.28.77,0,1.4.22,1.88.65.48.44.73,1.2.73,2.3v4.67h-2.1v-4.74c0-.47-.1-.79-.3-.98-.2-.19-.48-.28-.85-.28-.3,0-.58.09-.85.26-.26.17-.46.41-.6.73v5.01h-2.1v-7.47Z"/>
      <path class="cls-1" d="m59.16,27.52c.17.17.45.34.84.51.39.17.82.25,1.3.25.51,0,.93-.16,1.25-.48.32-.32.48-.81.48-1.46v-.34c-.18.29-.45.51-.8.67-.35.16-.76.24-1.23.24-.96,0-1.73-.34-2.32-1.03-.59-.68-.89-1.6-.89-2.73v-.23c0-1.14.29-2.05.88-2.73.59-.68,1.36-1.03,2.33-1.03.46,0,.88.09,1.25.28.37.19.64.43.79.72h.04l.04-.86h2v6.98c0,1.15-.35,2.04-1.06,2.66-.71.62-1.59.93-2.67.93-.66,0-1.26-.1-1.81-.3-.55-.2-1-.45-1.36-.74l.91-1.3Zm1.19-2.78c.27.38.68.57,1.23.57.36,0,.66-.1.92-.32.25-.21.43-.45.54-.71v-2.47c-.12-.32-.3-.57-.56-.78-.25-.2-.57-.3-.93-.3-.53,0-.93.19-1.19.58-.27.38-.4.88-.4,1.5v.43c0,.61.13,1.11.4,1.49Z"/>
      <path class="cls-1" d="m67.11,24.79c.23-.24.56-.36.99-.36s.76.12.99.36c.23.24.34.54.34.88s-.11.65-.34.89c-.23.24-.56.36-.99.36s-.76-.12-.99-.37c-.23-.25-.34-.54-.34-.89s.11-.64.34-.88Z"/>
    </g>
  </g>
</svg>